<!-- Created with Inkscape (http://www.inkscape.org/) -->
<svg xmlns:rdf="http://www.w3.org/1999/02/22-rdf-syntax-ns#" xmlns="http://www.w3.org/2000/svg" version="1.1" xmlns:cc="http://creativecommons.org/ns#" xmlns:dc="http://purl.org/dc/elements/1.1/" viewBox="0 0 184.941 56.1572">
 <metadata>
  <rdf:RDF>
   <cc:Work rdf:about="">
    <dc:format>image/svg+xml</dc:format>
    <dc:type rdf:resource="http://purl.org/dc/dcmitype/StillImage"/>
    <dc:title/>
   </cc:Work>
  </rdf:RDF>
 </metadata>
 <g fill-rule="nonzero" transform="translate(-353.24363,-478.56928)">
  <path fill="#211e1e" d="m361.237,529.028,0.0489,0.10738c0,0.12212-0.56153,0.59082-1.25,0.59082-1.32813,0-1.79199-1.21094-1.79199-2.83204,0-1.48925,0.38085-2.72948,1.73828-2.72948,0.68847,0,1.25,0.46386,1.25,0.59082l-0.0489,0.11225-0.16601,0.20996-0.0781,0.0635c-0.0538,0-0.48828-0.46386-0.94238-0.46386-0.84473,0-1.05469,0.80566-1.05469,2.13866,0,1.4502,0.3125,2.39747,1.1084,2.39747,0.4541,0,0.88867-0.46387,0.94726-0.46387l0.0781,0.0635z"/>
  <path fill="#211e1e" d="m370.055,526.943c0-1.66993-0.51759-2.77833-1.7627-2.77833-1.25,0-1.7627,1.09864-1.7627,2.77833,0,1.66991,0.50293,2.7832,1.7627,2.7832,1.25,0,1.7627-1.11329,1.7627-2.7832m-1.7627,2.2705c-0.88379,0-1.06445-0.89844-1.06445-2.2705,0-1.36719,0.19531-2.26563,1.06445-2.26563,0.8789,0,1.06445,0.89844,1.06445,2.26563,0,1.37206-0.18067,2.2705-1.06445,2.2705"/>
  <path fill="#211e1e" d="m379.762,529.526-0.0928,0.0928-0.4541,0-0.0928-0.0928-0.12695-4.01855c-0.005-0.15625,0-0.35156,0.01-0.4834l-0.0146-0.0195c-0.01,0.17577-0.0341,0.37109-0.0928,0.55664l-0.94726,2.72461-0.11713,0.083h-0.23437l-0.11713-0.083-0.9082-2.72461c-0.0586-0.18555-0.083-0.38087-0.0927-0.55664l-0.0146,0.0195c0.01,0.13184,0.0146,0.32715,0.01,0.4834l-0.11712,4.01855-0.0976,0.0928h-0.44923l-0.0976-0.0928,0.29785-5.16113,0.0927-0.0928h0.50782l0.0879,0.0733,0.92285,2.7002c0.039,0.11713,0.0684,0.3125,0.1025,0.4834h0.0146c0.039-0.16113,0.0684-0.36621,0.10737-0.4834l0.92285-2.7002,0.0879-0.0733h0.50781l0.0927,0.0928z"/>
  <path fill="#211e1e" d="m389.645,529.526-0.0976,0.0928-0.44922,0-0.0976-0.0928-0.12213-4.01855c-0.01-0.15625,0-0.35156,0.005-0.4834l-0.0146-0.0195c-0.005,0.17577-0.0292,0.37109-0.0927,0.55664l-0.94726,2.72461-0.11712,0.083h-0.23438l-0.11712-0.083-0.90333-2.72461c-0.0635-0.18555-0.0879-0.38087-0.0928-0.55664l-0.0195,0.0195c0.01,0.13184,0.0195,0.32715,0.01,0.4834l-0.11712,4.01855-0.0928,0.0928h-0.4541l-0.0927-0.0928,0.29785-5.16113,0.0927-0.0928h0.50781l0.083,0.0733,0.92285,2.7002c0.039,0.11713,0.0684,0.3125,0.1025,0.4834h0.0146c0.039-0.16113,0.0732-0.36621,0.10737-0.4834l0.92286-2.7002,0.0879-0.0733h0.50782l0.0928,0.0928z"/>
  <path fill="#211e1e" d="m398.878,528.188c0,0.9375-0.52735,1.53809-1.71875,1.53809-1.18163,0-1.6211-0.59083-1.6211-1.53809v-3.82324l0.0976-0.0976h0.4541l0.0928,0.0976v3.80859c0,0.63965,0.24903,1.04004,0.98145,1.04004,0.71776,0,1.06933-0.32715,1.06933-1.04004v-3.80859l0.0976-0.0976h0.4541l0.0928,0.0976z"/>
  <path fill="#211e1e" d="m408.034,529.526-0.0927,0.0928-0.43458,0-0.122-0.0733-1.80176-3.86231c-0.0928-0.20019-0.17577-0.45898-0.20996-0.6787l-0.0195,0.0146c0.0635,0.29786,0.0781,0.52246,0.0781,0.69825v3.80858l-0.0927,0.0928h-0.40528l-0.0928-0.0928v-5.16112l0.0928-0.0928h0.53223l0.11712,0.0684,1.72852,3.64257c0.0928,0.19532,0.11712,0.36622,0.18555,0.60059l0.0195-0.0195c-0.0244-0.16113-0.0733-0.33203-0.0733-0.47363v-3.72559l0.0976-0.0928h0.40039l0.0927,0.0928z"/>
  <path fill="#211e1e" d="m415.914,529.526-0.0928,0.0928-2.06544,0-0.0927-0.0928,0-0.32226,0.0927-0.0928,0.7129,0,0-4.33105-0.7129,0-0.0927-0.0928,0-0.32227,0.0927-0.0928,2.06544,0,0.0928,0.0928,0,0.32227-0.0928,0.0928-0.7129,0,0,4.33105,0.7129,0,0.0928,0.0928z"/>
  <path fill="#211e1e" d="m424.171,529.028,0.0489,0.10738c0,0.12212-0.56153,0.59082-1.25,0.59082-1.32813,0-1.792-1.21094-1.792-2.83204,0-1.48925,0.38086-2.72948,1.7334-2.72948,0.68847,0,1.25,0.46386,1.25,0.59082l-0.0439,0.11225-0.16603,0.20996-0.0781,0.0635c-0.0537,0-0.49316-0.46386-0.94237-0.46386-0.84473,0-1.05469,0.80566-1.05469,2.13866,0,1.4502,0.3125,2.39747,1.1084,2.39747,0.4541,0,0.88866-0.46387,0.94726-0.46387l0.0732,0.0635z"/>
  <path fill="#211e1e" d="m431.579,524.355-0.11712-0.083-0.46388,0-0.11712,0.083-1.5625,5.0879-0.039,0.13184,0.11237,0.0489,0.48339,0,0.14161-0.0879,0.3955-1.5088,1.60157,0,0.43945,1.5088,0.14161,0.0879,0.48339,0,0.10737-0.0489-0.039-0.13184zm0.28808,3.125-1.3037,0,0.47362-1.73339c0.0537-0.20996,0.13673-0.55176,0.16602-0.74219h0.0146c0.039,0.21973,0.11712,0.50293,0.18066,0.74219z"/>
  <path fill="#211e1e" d="m439.577,524.819,0,4.70703-0.0927,0.0976-0.4541,0-0.0976-0.0976,0-4.70703-1.16211,0-0.0928-0.0928,0-0.35156,0.10737-0.1025,3.0664,0,0.0927,0.0635-0.0341,0.0976-0.10737,0.30274-0.12695,0.083z"/>
  <path fill="#211e1e" d="m448.204,529.526-0.0928,0.0928-2.06544,0-0.0928-0.0928,0-0.32226,0.0928-0.0928,0.70801,0,0-4.33105-0.70801,0-0.0928-0.0928,0-0.32227,0.0928-0.0928,2.06544,0,0.0928,0.0928,0,0.32227-0.0928,0.0928-0.71289,0,0,4.33105,0.71289,0,0.0928,0.0928z"/>
  <path fill="#211e1e" d="m456.989,526.943c0-1.66993-0.51757-2.77833-1.75781-2.77833-1.25489,0-1.7627,1.09864-1.7627,2.77833,0,1.66991,0.49805,2.7832,1.7627,2.7832,1.25,0,1.75781-1.11329,1.75781-2.7832m-1.75781,2.2705c-0.88867,0-1.06934-0.89844-1.06934-2.2705,0-1.36719,0.2002-2.26563,1.06934-2.26563,0.87403,0,1.05958,0.89844,1.05958,2.26563,0,1.37206-0.17579,2.2705-1.05958,2.2705"/>
  <path fill="#211e1e" d="m465.91,529.526-0.0927,0.0928-0.43457,0-0.12695-0.0733-1.80175-3.86231c-0.0928-0.20019-0.1709-0.45898-0.20997-0.6787l-0.0146,0.0146c0.0635,0.29786,0.0781,0.52246,0.0781,0.69825v3.80858l-0.0927,0.0928h-0.40527l-0.0927-0.0928v-5.16112l0.0927-0.0928h0.52735l0.11712,0.0684,1.73339,3.64257c0.0928,0.19532,0.11713,0.36622,0.18555,0.60059l0.0146-0.0195c-0.0244-0.16112-0.0684-0.33202-0.0684-0.47362v-3.72559l0.0928-0.0928h0.40528l0.0928,0.0928z"/>
  <path fill="#211e1e" d="m474.288,524.936-0.0879,0.1025-0.10738-0.039c-0.14653-0.0781-0.54693-0.27346-0.99615-0.27346-0.46875,0-0.83496,0.24414-0.83496,0.7666,0,0.82031,1.03028,0.9668,1.66016,1.47949,0.41992,0.3418,0.62988,0.70801,0.62988,1.22071,0,0.95215-0.69824,1.5332-1.66015,1.5332-0.72754,0-1.30372-0.33691-1.4209-0.39063l-0.0635-0.0879,0.0341-0.0928,0.1025-0.25878,0.083-0.0976,0.10738,0.0342c0.15625,0.0733,0.62987,0.33202,1.18163,0.33202,0.59082,0,0.9375-0.36621,0.9375-0.88867,0-1.29394-2.29003-1.10352-2.29003-2.71484,0-0.89844,0.7373-1.39649,1.55761-1.39649,0.62989,0,1.12792,0.2832,1.23535,0.33691l0.0635,0.0879-0.0341,0.0928z"/>
  <path fill="#211e1e" d="m358.268,520.737,0-32.7832,10.7373,0,0,25.1367,14.7559,0,0,7.64648z"/>
  <path fill="#211e1e" d="m412.116,510.977c0.13673-8.62793-5.19042-14.7266-14.0234-14.7266-7.63672,0-13.4863,5.00488-13.4863,12.8223,0,7.93945,5.89844,12.3096,13.5303,12.3096,5.55663,0,11.5674-1.95801,13.208-7.87597h-9.0625c-0.6836,1.43066-2.05079,2.10937-3.54981,2.10937-2.50488,0-4.69238-1.85058-4.69238-4.63867zm-18.0762-4.7998c0-2.55371,1.59668-4.1504,4.41894-4.1504,2.23145,0,4.18945,1.95801,4.18945,4.1504z"/>
  <path fill="#211e1e" d="m410.265,496.899,9.47266,0,4.18945,15.0537,4.14551-15.0537,9.10644,0-8.06151,23.8379-10.5615,0z"/>
  <path fill="#211e1e" d="m463.268,510.977c0.13672-8.62793-5.18555-14.7266-14.0234-14.7266-7.63184,0-13.4863,5.00488-13.4863,12.8223,0,7.93945,5.89844,12.3096,13.5352,12.3096,5.55664,0,11.5625-1.95801,13.2031-7.87597h-9.05762c-0.6836,1.43066-2.05078,2.10937-3.55468,2.10937-2.50489,0-4.6875-1.85058-4.6875-4.63867zm-18.0713-4.7998c0-2.55371,1.59178-4.1504,4.41406-4.1504,2.23144,0,4.18945,1.95801,4.18945,4.1504z"/>
  <path fill="#211e1e" d="m465.06,487.954,9.43848,0,0,32.7832-9.43848,0z"/>
  <path fill="#eb172b" d="m493.517,484.907c-4.10157,2.76855-7.27051,4.94629-7.27051,20.0293,0,13.457,2.47558,16.9726,7.27051,19.8877v1.38672c-11.4648-6.18163-12.8418-16.7676-12.8418-20.8252,0-14.4482,10.1221-20.581,12.8418-21.8164z"/>
  <path fill="#eb172b" d="m515.162,483.569c2.72461,1.23535,12.8467,7.36817,12.8467,21.8164,0,4.05274-1.38183,14.6387-12.8467,20.8252v-1.38672c4.79981-2.91504,7.27051-6.43066,7.27051-19.8828,0-15.0879-3.16406-17.2656-7.27051-20.0391z"/>
  <path d="m501.613,501.758,1.04492,0c1.91406,0,5.41504-0.18555,5.41504-4.375,0-1.18653-0.54688-4.15039-4.04785-4.15039-4.37012,0-4.37012,4.15039-4.37012,5.28809h-5.93262c0-6.06446,3.42285-10.3906,10.7129-10.3906,4.32129,0,10.0049,2.1875,10.0049,9.02344,0,3.28125-2.0459,5.33691-3.88673,6.15723v0.0879c1.14259,0.32226,4.87794,2.01171,4.87794,7.50488,0,6.08398-4.51172,10.4102-11.0303,10.4102-3.05664,0-11.2598-0.67871-11.2598-10.7715h6.24512l-0.0489,0.044c0,1.72363,0.45898,5.62988,4.74121,5.62988,2.5537,0,4.79004-1.72363,4.79004-5.3125,0-4.39942-4.28711-4.58008-7.25586-4.58008z" fill="#211e1e"/>
  <path d="m530.636,490.029c0.35645,0,0.67382-0.0342,0.67382-0.4541,0-0.35157-0.3418-0.39552-0.62987-0.39552h-0.57618v0.84962zm-0.53223,1.64062-0.47364,0,0-2.89551,1.09864,0c0.69824,0,1.05469,0.24414,1.05469,0.83496,0,0.52246-0.32226,0.74219-0.75684,0.79101l0.81543,1.26954h-0.54199l-0.74708-1.23535h-0.44921zm0.51758-3.65722c-1.13282,0-2.01172,0.88866-2.01172,2.16307,0,1.18653,0.7666,2.16309,2.01172,2.16309,1.12305,0,2.00195-0.88379,2.00195-2.16309,0-1.27441-0.8789-2.16307-2.00195-2.16307m0,4.78026c-1.5039,0-2.57324-1.12793-2.57324-2.61719,0-1.57714,1.1914-2.61719,2.57324-2.61719,1.37207,0,2.56347,1.04005,2.56347,2.61719,0,1.57228-1.1914,2.61719-2.56347,2.61719" fill="#211e1e"/>
 </g>
</svg>
